# xmcd
#
# Track frame offsets:
#	183
#	14458
#	34533
#	49958
#	66733
#	84508
#	96533
#	110783
#	123883
#	140858
#
# Disc length: 2058 seconds
#
# Revision: 3
# Processed by: cddbd v1.5.2PL0 Copyright (c) Steve Scherf et al.
# Submitted via: audiograbber 1.83.01
#
DISCID=9708080a
DTITLE=Kris Kristofferson And The Borderlords - Repossessed
DYEAR=1987
DGENRE=Country
TTITLE0=Mean Old Man (featuring Carl Perkins)
TTITLE1=Shipwrecked In The Eighties
TTITLE2=They Killed Him (featuring the Memphis Tennessee Police Choir)
TTITLE3=What About Me
TTITLE4=El Gavilan (The Hawk)
TTITLE5=El Coyote
TTITLE6=Anthem '84
TTITLE7=The Heart
TTITLE8=This Old Road
TTITLE9=Love Is The Way (featuring the Memphis Tennessee Police Choir)
EXTD=YEAR: 1987
EXTT0=
EXTT1=
EXTT2=
EXTT3=
EXTT4=
EXTT5=
EXTT6=
EXTT7=
EXTT8=
EXTT9=
PLAYORDER=
